<!-- static/favicon.svg -->
<svg xmlns="http://www.w3.org/2000/svg" viewBox="0 0 64 64" width="64" height="64">
  <defs>
    <linearGradient id="g" x1="0%" y1="0%" x2="100%" y2="100%">
      <stop offset="0%" stop-color="#7c5cff"/>
      <stop offset="50%" stop-color="#22d3ee"/>
      <stop offset="100%" stop-color="#26f28c"/>
    </linearGradient>
    <linearGradient id="g2" x1="0%" y1="0%" x2="100%" y2="0%">
      <stop offset="0%" stop-color="#ffffff" stop-opacity="0.85"/>
      <stop offset="100%" stop-color="#ffffff" stop-opacity="0.35"/>
    </linearGradient>
  </defs>

  <!-- fundo arredondado -->
  <rect x="4" y="4" width="56" height="56" rx="14" fill="url(#g)"/>

  <!-- base do clapper -->
  <rect x="12" y="26" width="40" height="24" rx="6" fill="#0b0e14" opacity="0.9"/>

  <!-- topo do clapper (tampa) -->
  <g transform="translate(12,16)">
    <rect x="0" y="0" width="40" height="12" rx="4" fill="#0b0e14" opacity="0.95"/>
    <!-- listras -->
    <path d="M4 2 h8 l-4 8 h-8 z" fill="url(#g2)"/>
    <path d="M18 2 h8 l-4 8 h-8 z" fill="url(#g2)"/>
    <path d="M32 2 h8 l-4 8 h-8 z" fill="url(#g2)"/>
  </g>

  <!-- furos da película -->
  <g fill="#ffffff" opacity="0.9">
    <circle cx="20" cy="38" r="2"/>
    <circle cx="28" cy="38" r="2"/>
    <circle cx="36" cy="38" r="2"/>
    <circle cx="44" cy="38" r="2"/>
  </g>

  <!-- brilho sutil -->
  <path d="M10,18 C22,8 42,8 54,18" fill="none" stroke="#ffffff" stroke-opacity="0.25" stroke-width="3" stroke-linecap="round"/>
</svg>
